<svg xmlns="http://www.w3.org/2000/svg" viewBox="0 0 720 720">
  <defs>
    <linearGradient id="bg" x1="0" y1="0" x2="1" y2="1">
      <stop offset="0" stop-color="#f4f7fc"/>
      <stop offset="1" stop-color="#e9eef7"/>
    </linearGradient>
    <filter id="shadow" x="-20%" y="-20%" width="140%" height="140%">
      <feDropShadow dx="0" dy="10" stdDeviation="14" flood-opacity=".25"/>
    </filter>
  </defs>
  <rect width="720" height="720" fill="url(#bg)"/>
  <rect x="130" y="80" width="460" height="560" rx="36" fill="#fff" filter="url(#shadow)"/>
  <rect x="160" y="120" width="400" height="38" rx="19" fill="#f2f4f9"/>
  <circle cx="190" cy="139" r="10" fill="#6f7d90"/>
  <rect x="210" y="132" width="170" height="14" rx="7" fill="#909caf"/>
  <rect x="380" y="132" width="150" height="14" rx="7" fill="#b2bccb"/>

  <rect x="170" y="186" width="240" height="62" rx="18" fill="#eef0f4"/>
  <rect x="190" y="206" width="190" height="12" rx="6" fill="#77879e"/>
  <rect x="170" y="266" width="320" height="62" rx="18" fill="#eef0f4"/>
  <rect x="190" y="286" width="264" height="12" rx="6" fill="#77879e"/>
  <rect x="260" y="346" width="300" height="62" rx="18" fill="#2f88ff"/>
  <rect x="290" y="366" width="230" height="12" rx="6" fill="#dcebff"/>
  <rect x="170" y="426" width="280" height="62" rx="18" fill="#eef0f4"/>
  <rect x="190" y="446" width="220" height="12" rx="6" fill="#77879e"/>

  <rect x="160" y="546" width="400" height="64" rx="26" fill="#f2f4f9"/>
  <rect x="188" y="572" width="190" height="12" rx="6" fill="#9aa7ba"/>
  <circle cx="525" cy="578" r="22" fill="#2f88ff"/>
</svg>
