<svg xmlns="http://www.w3.org/2000/svg" viewBox="0 0 720 720">
  <defs>
    <linearGradient id="hall" x1="0" y1="0" x2="0" y2="1">
      <stop offset="0" stop-color="#f8fbff"/>
      <stop offset="1" stop-color="#d8e0ed"/>
    </linearGradient>
  </defs>
  <rect width="720" height="720" fill="url(#hall)"/>
  <rect x="100" y="80" width="520" height="560" rx="20" fill="#ffffff" opacity=".72"/>
  <rect x="120" y="100" width="480" height="520" rx="18" fill="#e9eff8"/>
  <rect x="160" y="160" width="80" height="340" rx="12" fill="#d8dee8"/>
  <rect x="480" y="160" width="80" height="340" rx="12" fill="#d8dee8"/>
  <rect x="280" y="180" width="160" height="250" rx="18" fill="#cfd7e5"/>

  <circle cx="240" cy="450" r="42" fill="#f7c7a0"/>
  <rect x="202" y="486" width="76" height="110" rx="26" fill="#3f5f93"/>
  <circle cx="340" cy="470" r="40" fill="#f4bd97"/>
  <rect x="305" y="503" width="70" height="100" rx="24" fill="#5b4aa5"/>
  <circle cx="430" cy="450" r="40" fill="#f6c7a4"/>
  <rect x="393" y="485" width="74" height="112" rx="24" fill="#31677f"/>
  <circle cx="510" cy="470" r="38" fill="#eeb08c"/>
  <rect x="477" y="500" width="66" height="96" rx="22" fill="#475b8a"/>

  <rect x="300" y="270" width="120" height="72" rx="14" fill="#1f2d42"/>
  <rect x="316" y="288" width="88" height="36" rx="8" fill="#0a84ff"/>
  <text x="328" y="312" fill="#dff0ff" font-size="18" font-family="Arial, sans-serif">PASS: 8042</text>
</svg>
