<svg xmlns="http://www.w3.org/2000/svg" viewBox="0 0 720 720">
  <defs>
    <linearGradient id="bg" x1="0" y1="0" x2="1" y2="1">
      <stop offset="0" stop-color="#0b1220"/>
      <stop offset="1" stop-color="#111a2b"/>
    </linearGradient>
  </defs>
  <rect width="720" height="720" fill="url(#bg)"/>
  <rect x="70" y="70" width="580" height="580" rx="20" fill="#0f192c" stroke="#3a4f78" stroke-width="4"/>
  <g stroke="#4f76bd" stroke-width="3" opacity=".88">
    <line x1="220" y1="220" x2="360" y2="180"/>
    <line x1="360" y1="180" x2="500" y2="250"/>
    <line x1="360" y1="180" x2="290" y2="350"/>
    <line x1="290" y1="350" x2="470" y2="420"/>
    <line x1="290" y1="350" x2="200" y2="500"/>
    <line x1="500" y1="250" x2="530" y2="500"/>
  </g>
  <g>
    <circle cx="220" cy="220" r="32" fill="#2f88ff"/>
    <circle cx="360" cy="180" r="36" fill="#42d0ff"/>
    <circle cx="500" cy="250" r="30" fill="#2f88ff"/>
    <circle cx="290" cy="350" r="34" fill="#4c69ff"/>
    <circle cx="470" cy="420" r="30" fill="#30d158"/>
    <circle cx="200" cy="500" r="28" fill="#ff8a65"/>
    <circle cx="530" cy="500" r="28" fill="#ff375f"/>
  </g>
  <text x="110" y="120" fill="#9db8e5" font-size="28" font-family="Arial, sans-serif">School Net Overview</text>
  <text x="110" y="610" fill="#f9a4a4" font-size="24" font-family="Arial, sans-serif">3 suspicious hosts detected</text>
</svg>
