<svg xmlns="http://www.w3.org/2000/svg" viewBox="0 0 720 720">
  <defs>
    <linearGradient id="board" x1="0" y1="0" x2="1" y2="1">
      <stop offset="0" stop-color="#f4efd8"/>
      <stop offset="1" stop-color="#ddd2ab"/>
    </linearGradient>
  </defs>
  <rect width="720" height="720" fill="#cfd6dd"/>
  <rect x="78" y="90" width="564" height="540" rx="26" fill="url(#board)" stroke="#bcae86" stroke-width="8"/>

  <rect x="130" y="150" width="230" height="230" rx="14" fill="#fff"/>
  <rect x="160" y="180" width="170" height="170" fill="#fff"/>
  <rect x="160" y="180" width="48" height="48" fill="#111"/>
  <rect x="282" y="180" width="48" height="48" fill="#111"/>
  <rect x="160" y="302" width="48" height="48" fill="#111"/>
  <rect x="219" y="240" width="26" height="26" fill="#111"/>
  <rect x="250" y="240" width="18" height="18" fill="#111"/>
  <rect x="240" y="284" width="20" height="20" fill="#111"/>
  <rect x="274" y="270" width="16" height="16" fill="#111"/>
  <rect x="210" y="300" width="18" height="18" fill="#111"/>

  <rect x="390" y="160" width="200" height="66" rx="12" fill="#fff"/>
  <text x="410" y="202" fill="#324256" font-size="30" font-family="Arial, sans-serif">Секретный чат</text>
  <rect x="390" y="242" width="210" height="52" rx="12" fill="#fff"/>
  <text x="410" y="275" fill="#4c6078" font-size="26" font-family="Arial, sans-serif">t.me/otryad404</text>

  <rect x="140" y="420" width="460" height="170" rx="18" fill="#fff" opacity=".88"/>
  <text x="170" y="470" fill="#4a5a6f" font-size="28" font-family="Arial, sans-serif">ВНИМАНИЕ:</text>
  <text x="170" y="510" fill="#637890" font-size="23" font-family="Arial, sans-serif">Проверяйте QR перед сканированием</text>
  <text x="170" y="548" fill="#637890" font-size="23" font-family="Arial, sans-serif">и не вводите данные карты.</text>
</svg>
